<?xml version="1.0" encoding="utf-8"?>
<!-- Generator: Adobe Illustrator 17.1.0, SVG Export Plug-In . SVG Version: 6.00 Build 0)  -->
<!DOCTYPE svg PUBLIC "-//W3C//DTD SVG 1.1//EN" "http://www.w3.org/Graphics/SVG/1.1/DTD/svg11.dtd">
<svg version="1.1" id="Layer_1" xmlns="http://www.w3.org/2000/svg" xmlns:xlink="http://www.w3.org/1999/xlink" x="0px" y="0px"
	 viewBox="0 0 32 32" enable-background="new 0 0 32 32" xml:space="preserve">
<g display="none">
	<path display="inline" fill="#FD8328" d="M7.6,31.1C7.6,31.6,8,32,8.5,32h1.9c2.6,0,4.7-2.2,4.7-4.8s-2.1-4.7-4.7-4.7H8.5
		c-0.5,0-0.9,0.4-0.9,0.9c0,1.5,0.8,2.9,1.9,3.8C8.3,28.1,7.6,29.5,7.6,31.1z"/>
	<path display="inline" fill="#FD8328" d="M3.8,1.9h14.1c0.5,0,0.9-0.4,0.9-0.9S18.4,0,17.9,0H3.8C1.7,0,0,1.7,0,3.7
		s1.7,3.8,3.8,3.8h2c0.1,0.6,0.2,1.3,0.3,1.9H2.8c-0.5,0-0.9,0.4-0.9,0.9s0.4,0.9,0.9,0.9h4c1.8,3.4,5.3,5.6,9.2,5.6h0.9
		c3.1,0,5.7-2.5,5.7-5.6c0-3.1-2.6-5.6-5.7-5.6c-0.6,0-13.8,0-13.2,0c-1,0-1.9-0.8-1.9-1.9S2.7,1.9,3.8,1.9z M14.1,9.4
		c0.5,0,0.9,0.4,0.9,0.9c0,0.5-0.4,0.9-0.9,0.9s-0.9-0.4-0.9-0.9C13.2,9.8,13.6,9.4,14.1,9.4z"/>
	<path display="inline" fill="#FD8328" d="M21.4,17.3c0.4,0.2,0.8,0.7,1,1.1c0.7,0.2,1.4,0.3,2.1,0.3c3.1,0,5.9-1.9,7.1-5
		c-0.6-2-1.7-3.8-3.1-5.1c-1.7-1.6-3.9-2.7-6.4-3c1.5,1.4,2.5,3.4,2.5,5.6C24.5,13.8,23.3,16,21.4,17.3z"/>
	<path display="inline" fill="#FD8328" d="M24.5,20.6c-0.7,0-1.3-0.1-2-0.2c-0.1,0.4-0.5,0.9-1.2,1.4c0.6,1.4,1.6,2.5,2.8,3.3
		c0.9,0.6,1.9,1,2.9,1.1c3.6-1.9,4.9-5.3,4.9-9.3C29.9,19.4,27.4,20.6,24.5,20.6L24.5,20.6z"/>
	<path display="inline" fill="#FD8328" d="M24.3,27.3c-0.4-0.2-0.8-0.3-1.1-0.6c-1.5-1-2.6-2.3-3.4-3.8c-0.9,0.6-2.1,1.2-3.4,1.9
		c0.3,0.8,0.5,1.6,0.5,2.5c0,0.3,0,0.6-0.1,0.9C19.6,28.1,22.1,27.9,24.3,27.3L24.3,27.3z"/>
</g>
<g>
	<path fill="#FD8328" d="M7.3,16.7c0,0,2.9,2.9,5,5c0.1,0.1,0.3,0.3,0.5,0.4c-0.6-2.3-0.7-4.3-0.7-6.1c0-1.8,0.1-3.7,0.7-6.1
		c-0.2,0.1-0.3,0.3-0.5,0.4c-2.1,2.1-5,5-5,5C6.9,15.7,6.9,16.3,7.3,16.7z"/>
	<path fill="#FD8328" d="M19.3,8c-0.8,2-1.4,4.6-1.4,8c0,3.4,0.6,5.9,1.4,8h2c-1.1-3.2-1.2-5.7-1.2-8c0-2.2,0.2-4.8,1.2-8H19.3z"/>
	<path fill="#FD8328" d="M15.1,8.5c-0.7,2-1.2,4.3-1.2,7.5c0,3.1,0.5,5.5,1.2,7.5c0.7,0.3,1.4,0.4,2.2,0.5c-1.1-3.1-1.2-5.7-1.2-7.9
		c0-2.2,0.2-4.8,1.2-7.9C16.5,8.1,15.8,8.3,15.1,8.5z"/>
	<path fill="#FD8328" d="M31.8,15.5l-2.9-4.1c-1.3-1.9-3.4-3-5.6-3.3c-0.8,2-1.3,4.5-1.3,7.9c0,3.4,0.6,5.9,1.3,7.9
		c2.2-0.2,4.3-1.4,5.6-3.3l2.9-4.1C32.1,16.2,32.1,15.8,31.8,15.5z M26,14.9c-0.5,0-0.9-0.4-0.9-0.9c0-0.5,0.4-0.9,0.9-0.9
		c0.5,0,0.9,0.4,0.9,0.9C26.9,14.5,26.5,14.9,26,14.9z"/>
	<path fill="#FD8328" d="M13.1,24.6c-0.7,1-1.1,2.2-1.1,3.4c0,0.5,0.4,0.9,0.9,0.9h3c2.3,0,4.2-1.3,5.3-3.1h-3.3
		C16.2,25.8,14.6,25.4,13.1,24.6z"/>
	<path fill="#FD8328" d="M17.9,6.2h3.3c-1-1.9-3-3.1-5.3-3.1h-3c-0.5,0-0.9,0.4-0.9,0.9c0,1.3,0.4,2.5,1.1,3.4
		C14.6,6.6,16.2,6.2,17.9,6.2z"/>
	<path fill="#FD8328" d="M5.2,16c0-0.8,0.3-1.5,0.8-2l1.7-1.7C6.6,10.9,4.9,10,2.9,10h-2C0.4,10,0,10.5,0,11c0,2,0.9,3.8,2.3,5
		C0.9,17.2,0,19.1,0,21C0,21.5,0.4,22,0.9,22h2c1.9,0,3.6-0.9,4.7-2.3C6.7,18.7,6,18,6,18C5.4,17.5,5.2,16.8,5.2,16z"/>
</g>
<g display="none">
	<g display="inline">
		<path fill="#FD8328" d="M27.8,0l-8.8,6.4l-2.2-2.2l0-1.8c0-1.3-1.1-2.4-2.4-2.4h-1v5.4l-0.6,0.2c-2.5,1-4.7,2.7-6.3,4.9
			c-1.6,2.3-2.4,5-2.4,7.8V32h18.7v-2.9c0-2.8-2.3-5-5-5l-0.9,0v-6.6c-0.1,0-0.2,0-0.4,0c-3.1,0-5.6-2.5-5.6-5.6s2.5-5.6,5.6-5.6V8
			c-2.1,0-3.7,1.7-3.7,3.7s1.7,3.7,3.7,3.7c0.3,0,0.7,0,1-0.1l0,0c0.2-0.1,0.5-0.2,0.7-0.3l0.6-0.3l3.6,3.6c0.2,0.2,0.4,0.2,0.6,0
			l3.9-3.9l-5.7-5.7L27.8,0z"/>
	</g>
</g>
<g display="none">
	<g display="inline">
		<path fill="#276268" d="M26.6,30.5c-0.2-1.3-1.6-1.4-2.4-1.3c-0.9-3.3,2.2-8.3,2.4-9.4c0.2-1.3-0.9-8.6-1-12.3
			c-0.1-3.8-5.7-8-6.6-7.3c-0.9,1,1.3,2.4,0.1,3.5c-1.1,1.1-1.4,1.9-2.3,3.2c-2.2,3.3,3.7,3.3,3.7,3.3S16,13.5,15,15.2
			c-0.9,1.6-1.3,3.3-2.5,4.8c-2.6,3.4-2,9.3-2,9.3s-4.9-1.6-2.2-7.2c2-4.3,3.1-10.5-1.6-8.9c-1.8,0.6,0.4,1.9,0.8,2.4
			C8.8,17,7.7,19.4,7,20.7c-2,3.7-2.8,7.5,1.5,9.9c1.9,1.1,4.5,1.3,7.1,1.3l6.6,0C24.3,32.1,26.7,31.7,26.6,30.5z"/>
	</g>
</g>
<g display="none">
	<path display="inline" fill="#276268" d="M12.4,9.9c1.9,0,3.4-1.5,3.4-3.4V3.9C15.8,1.7,14.1,0,12,0H9v6.5C9,8.4,10.6,9.9,12.4,9.9
		z"/>
	<path display="inline" fill="#276268" d="M24.5,15.1L21.9,14c-2.2-1-4-2.7-5-4.7c-0.9,1.5-2.6,2.5-4.5,2.5c-2.9,0-5.3-2.4-5.3-5.3
		V0.4C5.9,1.1,5,2.4,5,3.9C5,5.1,4.1,6,2.9,6h-2C0.4,6,0,6.4,0,7v1.5c0,2.5,2,4.5,4.5,4.5H6C6.5,12.9,7,13.4,7,14v2.2
		c0,1.9,0.7,3.8,2,5.2v5.4l-0.4,0.8C8.2,28.4,8,29.3,8,30.2v0.9C8,31.6,8.5,32,9,32h3.1v-0.9c0-2.7,2.2-5,5-5h0.1V26
		c0-3.3,2.7-6,6-6c0.5,0,0.9,0.4,0.9,0.9c0,0.5-0.4,0.9-0.9,0.9c-2.3,0-4.1,1.8-4.1,4.1v1c0,0.5-0.4,0.9-0.9,0.9h-1
		c-1.7,0-3.1,1.4-3.1,3.1V32h17.1c0.5,0,0.9-0.4,0.9-0.9v-4.5C32,21.6,29.1,17.1,24.5,15.1z"/>
</g>
<g display="none">
	<path display="inline" fill="#276268" d="M1.9,21.5c0-0.7,0.3-1.3,0.8-1.8l1.1-1.1c1.7-1.7,0.5-4.5-1.9-4.5H0.9
		C0.4,14.1,0,14.5,0,15c0,0.5,0.4,0.9,0.9,0.9h0.9c0.7,0,1,0.8,0.5,1.3l-1.1,1.1c-0.8,0.8-1.3,2-1.3,3.1C0,24,2,26,4.5,26h0.7
		c-0.4-0.5-0.7-1.2-0.9-1.9C2.9,24,1.9,22.8,1.9,21.5z"/>
	<path display="inline" fill="#276268" d="M27.8,14.1L26,12.5V11c0-2.7-2.2-5-5-5c-2.6,0-5,2.1-5,5c0,2.7,2.2,5,5,5
		c0.5,0,0.9,0.4,0.9,0.9c0,0.5-0.4,0.9-0.9,0.9c-3.8,0-6.8-3.1-6.8-6.8c0-0.2,0-0.4,0-0.6C9.5,11.6,6,15.9,6,21v2
		C6,24.7,7.3,26,9,26h20.1c1.6,0,2.9-1.3,2.9-2.9v0C32,19.6,30.5,16.3,27.8,14.1z M25,18.9c-0.5,0-0.9-0.4-0.9-0.9
		c0-0.5,0.4-0.9,0.9-0.9c0.5,0,0.9,0.4,0.9,0.9C26,18.5,25.6,18.9,25,18.9z"/>
</g>
</svg>
